<svg fill="#ffffff" width="800px" height="800px" viewBox="0 -1.01 46.011 46.011" xmlns="http://www.w3.org/2000/svg" data-originalfillcolor="#000000" transform="rotate(0) scale(1, 1)">
  <path id="_17.Brush" d="M46.443,6.719C40.506,15.546,22.623,33.4,22.623,33.4l-.007-.007c-.042.046-.08.094-.125.139a4.964,4.964,0,0,1-4.114,1.4,6.089,6.089,0,0,1-1.529,5.678s-7.52,9.3-15.854,3.44c0,0,4.494-1.259,4.885-4.885a8.753,8.753,0,0,1,2.7-7.04,5.741,5.741,0,0,1,5.445-1.6,4.95,4.95,0,0,1,1.411-4.047c.044-.045.093-.083.139-.126l-.007-.007S33.438,8.488,42.278,2.559a2.982,2.982,0,0,1,4.165,4.16ZM15.456,33.486a3.849,3.849,0,0,0-2.733-1.165,3.809,3.809,0,0,0-2.744,1.171,7.277,7.277,0,0,0-2.145,5.677,7.608,7.608,0,0,1-2.557,4.776,7.133,7.133,0,0,0,1.285.116c4.75,0,8.752-4.66,8.789-4.7C15.352,39.357,18.09,36.121,15.456,33.486Zm.538-3.478a2.938,2.938,0,0,0,.854,2.109,3.064,3.064,0,0,0,2.146.891,2.9,2.9,0,0,0,2.066-.874l1.554-1.57.274-.28-4.2-4.2c-.092.089-.2.2-.287.279L16.847,27.9A2.931,2.931,0,0,0,15.994,30.008ZM44.72,4.286A.974.974,0,0,0,44.027,4a1.055,1.055,0,0,0-.635.222c-6.218,4.17-18,15.367-23.3,20.5l4.159,4.159c5.14-5.3,16.364-17.083,20.568-23.332A.974.974,0,0,0,44.72,4.286Z" transform="translate(-0.994 -1.999)" fill-rule="evenodd"/>
</svg>